<?xml version="1.0" encoding="UTF-8" standalone="no"?>
<svg
   id="svg"
   version="1.1"
   style="display: block;"
   viewBox="0 0 449 139"
   sodipodi:docname="export-2024-04-25 080333.svg"
   inkscape:version="1.2.1 (9c6d41e410, 2022-07-14)"
   xmlns:inkscape="http://www.inkscape.org/namespaces/inkscape"
   xmlns:sodipodi="http://sodipodi.sourceforge.net/DTD/sodipodi-0.dtd"
   xmlns="http://www.w3.org/2000/svg"
   xmlns:svg="http://www.w3.org/2000/svg">
  <defs
     id="defs188" />
  <sodipodi:namedview
     id="namedview186"
     pagecolor="#64cb71"
     bordercolor="#000000"
     borderopacity="0.25"
     inkscape:showpageshadow="2"
     inkscape:pageopacity="1"
     inkscape:pagecheckerboard="0"
     inkscape:deskcolor="#d1d1d1"
     showgrid="false"
     inkscape:zoom="1.4242762"
     inkscape:cx="63.541048"
     inkscape:cy="64.94527"
     inkscape:window-width="1920"
     inkscape:window-height="1001"
     inkscape:window-x="-9"
     inkscape:window-y="-9"
     inkscape:window-maximized="1"
     inkscape:current-layer="svg" />
  <path
     id="path161"
     style="fill: #FEFEFE;"
     d="M 0 0 C 4.999995 3.8759301e-33 5.0000017 1.2578125e-06 6.7382812 1.2578125 C 18.591193 15.316601 25.716605 33.106699 32.085938 50.181641 C 43.568452 80.853708 57.245841 113.14153 88.375 128.25 C 101.73111 133.56926 114.72888 133.43612 128.88672 133.4043 C 131.18777 133.41001 133.48802 133.41766 135.78906 133.42578 C 142.00821 133.44365 148.2281 133.44126 154.44727 133.43555 C 159.65318 133.43245 164.85855 133.43928 170.06445 133.44531 C 183.05494 133.46014 196.04467 133.45547 209.03516 133.44336 C 220.2818 133.43343 231.52878 133.44677 242.77539 133.4707 C 254.36077 133.49517 265.94584 133.50428 277.53125 133.49805 C 284.0206 133.49469 290.51067 133.4964 297 133.51367 C 303.10608 133.52922 309.21034 133.52655 315.31641 133.50781 C 317.54631 133.50415 319.77793 133.50705 322.00781 133.51758 C 346.4608 133.62411 365.00808 129.06879 383.30078 111.83203 C 400.61447 93.964792 409.64282 68.77861 418.4707 46.003906 C 433.08895 8.3264159 433.0897 8.3262783 444 0 L 0 0 z "
     transform="translate(0,0)" />
  <path
     d="M0 0 C4.93578296 3.49116356 8.53356455 7.04605188 10.5625 12.8125 C11.23919724 19.02328288 11.3491793 24.60581596 7.5625 29.8125 C4.07772535 33.58767254 0.81602941 37.00254663 -4.4375 37.75 C-5.4275 37.770625 -6.4175 37.79125 -7.4375 37.8125 C-7.13714844 37.24402344 -6.83679688 36.67554688 -6.52734375 36.08984375 C-3.98790521 30.93349228 -2.78962223 27.58007219 -4.4375 21.8125 C-5.0975 21.1525 -5.7575 20.4925 -6.4375 19.8125 C-10.00342619 19.97667032 -10.00342619 19.97667032 -13.4375 20.8125 C-15.04537839 24.02825678 -14.91961971 27.3249587 -14.4375 30.8125 C-13.32980862 33.39066377 -12.00489499 35.46140752 -10.4375 37.8125 C-16.34667692 37.45071366 -20.13214286 35.94692485 -24.4375 31.8125 C-27.96768551 27.42909745 -29.70008934 22.48442981 -29.4375 16.8125 C-28.02623346 9.46891835 -24.93966736 4.37506148 -18.875 -0.0625 C-12.65268985 -2.09889241 -6.19490477 -2.14005801 0 0 Z "
     transform="translate(145.4375,39.1875)"
     style="fill: #FEFCFC;"
     id="path167" />
  <path
     d="M0 0 C0.7734375 -0.01933594 1.546875 -0.03867187 2.34375 -0.05859375 C4.5 0.4375 4.5 0.4375 6.25390625 2.15625 C8.42008191 6.12191328 8.12400544 10.04818899 7.5 14.4375 C5.9375 17.5625 5.9375 17.5625 3.5 19.4375 C0 20 0 20 -3.5 19.4375 C-6.37033877 17.2681174 -7.38528953 16.11040788 -7.99609375 12.52734375 C-7.97675781 11.48707031 -7.95742187 10.44679688 -7.9375 9.375 C-7.93621094 8.33214844 -7.93492187 7.28929687 -7.93359375 6.21484375 C-7.5 3.4375 -7.5 3.4375 -6.25390625 1.59375 C-4.04373606 0.1367113 -2.63608938 0.00439348 0 0 Z "
     transform="translate(252.5,53.5625)"
     style="fill: #FEFCFC;"
     id="path179" />
  <path
     d="M0 0 C2.89932357 2.39509338 3.50168276 4.31245243 4 8 C1.69 8 -0.62 8 -3 8 C-1.125 2.25 -1.125 2.25 0 0 Z "
     transform="translate(323,58)"
     style="fill: #F9F0F0;"
     id="path183" />
  <g
     transform="matrix(0.00985297,0,0,-0.00985297,107.10937,90.363516)"
     fill="#000000"
     stroke="none"
     id="g602"
     style="fill:#db392b;fill-opacity:1">
    <path
       d="M 2610,5834 C 2075,5770 1564,5557 1140,5220 1005,5114 786,4895 680,4760 384,4388 184,3949 95,3480 35,3168 35,2732 95,2420 184,1950 384,1513 680,1140 786,1005 1005,786 1140,680 1569,340 2078,129 2620,66 c 175,-21 485,-21 660,0 892,103 1689,614 2155,1384 216,356 351,758 401,1190 22,195 15,546 -15,740 -110,711 -464,1340 -1011,1797 -436,365 -964,591 -1536,658 -160,19 -504,18 -664,-1 z m 531,-434 c 274,-28 492,-91 736,-214 C 4710,4768 5158,3827 4959,2917 4817,2269 4360,1720 3747,1460 3521,1364 3238,1300 3043,1300 h -63 l 73,88 c 295,354 465,660 529,946 26,120 21,312 -11,429 -100,364 -410,572 -746,502 -421,-88 -634,-577 -469,-1075 76,-228 260,-529 491,-803 l 74,-87 h -63 c -231,0 -550,81 -803,205 -850,414 -1306,1334 -1120,2260 112,557 470,1062 958,1351 244,145 525,244 778,273 52,6 108,13 124,15 68,7 249,5 346,-4 z"
       id="path588"
       style="fill:#db392b;fill-opacity:1" />
    <path
       d="m 14495,4298 c -566,-51 -959,-293 -1154,-709 -187,-399 -215,-1030 -65,-1479 95,-284 246,-487 469,-632 469,-304 1347,-356 1882,-112 242,110 454,319 569,562 113,239 161,514 151,876 -8,303 -45,504 -132,719 -63,156 -133,263 -250,383 -187,190 -394,296 -705,358 -218,44 -514,57 -765,34 z m 430,-519 c 293,-36 490,-186 585,-448 54,-147 71,-256 77,-488 9,-337 -23,-544 -114,-733 -38,-79 -59,-108 -127,-175 -96,-96 -169,-137 -299,-170 -190,-48 -428,-42 -601,16 -309,103 -459,345 -497,803 -33,405 42,781 194,964 157,189 440,273 782,231 z"
       id="path590"
       style="fill:#db392b;fill-opacity:1" />
    <path
       d="m 6783,4179 c 3,-12 291,-667 639,-1455 l 633,-1433 210,-1 c 294,0 369,22 483,145 56,60 67,84 665,1405 334,740 607,1348 607,1353 0,11 -519,8 -586,-4 -143,-26 -259,-117 -323,-254 -21,-44 -189,-459 -372,-922 -184,-463 -337,-838 -341,-835 -3,4 -178,410 -387,902 -280,656 -392,908 -421,946 -21,28 -67,70 -100,93 -105,70 -130,74 -439,79 l -274,4 z"
       id="path592"
       style="fill:#db392b;fill-opacity:1" />
    <path
       d="m 11325,4189 c -293,-23 -519,-117 -719,-300 -180,-165 -329,-461 -386,-769 -28,-147 -38,-440 -21,-601 62,-588 353,-1006 806,-1158 188,-63 209,-64 988,-68 l 707,-4 -2,263 -3,263 -575,6 c -605,6 -617,7 -765,55 -183,60 -301,189 -354,384 -11,41 -23,98 -26,125 -4,28 -9,62 -11,78 l -6,27 h 831 831 v 255 255 h -831 -831 l 6,28 c 2,15 7,50 11,77 35,288 185,463 448,525 145,34 252,40 770,40 h 507 v 265 265 l -637,-1 c -351,-1 -683,-5 -738,-10 z"
       id="path594"
       style="fill:#db392b;fill-opacity:1" />
    <path
       d="m 16873,3183 c 3,-977 4,-1022 24,-1123 35,-181 78,-283 168,-400 143,-185 341,-293 635,-346 81,-15 184,-18 678,-21 l 582,-4 -2,263 -3,263 -490,6 c -531,6 -571,10 -683,65 -63,31 -142,106 -169,160 -56,111 -63,234 -63,1149 v 780 l -24,50 c -29,62 -86,117 -151,147 -47,21 -65,23 -278,26 l -228,4 z"
       id="path596"
       style="fill:#db392b;fill-opacity:1" />
    <path
       d="m 19600,4186 c -61,-16 -112,-49 -154,-98 -70,-82 -66,13 -66,-1465 V 1289 l 228,3 c 206,3 231,5 273,24 63,30 116,79 147,138 l 27,51 3,1348 2,1347 -207,-1 c -131,0 -225,-5 -253,-13 z"
       id="path598"
       style="fill:#db392b;fill-opacity:1" />
    <path
       d="m 21870,4189 c -78,-15 -184,-74 -237,-132 -26,-29 -56,-69 -66,-88 -10,-19 -276,-628 -591,-1354 l -573,-1320 251,-3 c 163,-2 270,1 306,8 91,20 174,66 238,135 51,54 67,83 131,231 41,93 86,197 102,232 l 28,62 h 578 578 l 89,-207 c 49,-115 102,-229 119,-256 59,-96 169,-172 285,-196 59,-12 562,-16 562,-3 0,4 -283,657 -628,1452 l -628,1445 -249,1 c -138,1 -270,-2 -295,-7 z m 384,-1209 c 113,-267 206,-489 206,-493 0,-4 -192,-7 -426,-7 -371,0 -425,2 -420,15 54,142 421,984 426,978 4,-4 100,-226 214,-493 z"
       id="path600"
       style="fill:#db392b;fill-opacity:1" />
  </g>
</svg>
